<svg width="1728" height="1117" viewBox="0 0 1728 1117" fill="none" xmlns="http://www.w3.org/2000/svg">
<g clip-path="url(#clip0_214_26)">
<rect width="1728" height="1117" fill="white"/>
<g clip-path="url(#clip1_214_26)">
<path d="M1009.16 950.812C1064.21 1030.42 1112.85 1099.98 1081.85 1174.01C1050.32 1248.04 939.676 1326.16 827.431 1326.53C715.186 1326.9 602.407 1249.53 536.663 1162.11C471.454 1074.32 453.816 976.48 510.473 896.128C567.13 816.148 697.548 753.652 794.292 767.416C891.037 781.18 953.573 870.832 1009.16 950.812Z" fill="#2EC4B6"/>
<path d="M1299.21 1004.19C1330.56 1042.94 1351.94 1096.06 1356.07 1154.81C1360.2 1213.56 1347.32 1277.62 1315.98 1316.06C1284.63 1354.5 1234.81 1367.31 1191.8 1358.56C1148.79 1349.81 1112.59 1319.5 1075.16 1281.06C1037.74 1242.62 998.862 1196.06 994.002 1143.25C989.385 1090.75 1018.79 1032 1056.21 993.562C1093.63 954.812 1139.32 936.375 1182.81 938.875C1226.55 941.687 1267.86 965.437 1299.21 1004.19Z" fill="#011627"/>
<path d="M1142.61 803.071C1157.24 816.359 1162.27 836.819 1155.05 852.372C1147.83 867.925 1128.36 878.42 1108.6 884.233C1088.93 889.971 1069.17 891.028 1051.12 885.517C1033.07 880.005 1016.83 867.925 1009.89 851.919C1003.05 835.838 1005.43 815.83 1018.73 802.844C1031.93 789.858 1055.97 783.894 1080 783.894C1104.04 783.894 1128.07 789.858 1142.61 803.071Z" fill="#FF9F1C"/>
</g>
<path d="M254.259 411.064C294.786 451.192 282.474 511.688 287.604 559.72C292.734 607.752 315.306 643.32 310.176 680.104C305.559 716.888 272.727 754.888 220.914 786.808C169.101 818.728 97.7938 844.872 32.6428 840.312C-32.5082 835.752 -92.0162 800.184 -123.309 764.312C-154.089 728.136 -156.654 691.656 -196.155 653.96C-235.143 616.264 -311.067 577.96 -328.509 532.36C-345.951 487.064 -304.398 434.776 -235.143 400.12C-166.401 365.464 -69.4442 348.744 25.4608 349.96C120.366 351.48 213.732 370.936 254.259 411.064Z" fill="#E71D36"/>
<path d="M2059.9 259.338C2122.46 311.145 2160.64 388.631 2182.72 467.919C2204.34 547.658 2210.32 628.748 2176.28 687.313C2141.78 745.878 2068.18 781.017 2002.86 808.497C1937.08 836.428 1880.04 856.25 1811.04 872.018C1742.5 887.785 1661.54 899.949 1596.68 872.018C1531.82 844.087 1482.14 776.962 1456.38 701.278C1430.16 626.045 1427.4 542.252 1453.62 469.721C1480.3 397.641 1536.42 336.373 1603.12 285.917C1669.36 235.461 1746.18 195.367 1828.06 188.609C1909.94 181.401 1996.88 207.53 2059.9 259.338Z" fill="#FF9F1C"/>
<path d="M1456.94 1069.63C1468.26 1081.69 1472.15 1100.25 1466.57 1114.36C1460.98 1128.47 1445.91 1138 1430.62 1143.27C1415.41 1148.48 1400.12 1149.44 1386.16 1144.44C1372.19 1139.43 1359.62 1128.47 1354.26 1113.95C1348.97 1099.36 1350.8 1081.21 1361.09 1069.43C1371.31 1057.65 1389.9 1052.23 1408.5 1052.23C1427.1 1052.23 1445.69 1057.65 1456.94 1069.63Z" fill="#E71D36"/>
</g>
<defs>
<clipPath id="clip0_214_26">
<rect width="1728" height="1117" fill="white"/>
</clipPath>
<clipPath id="clip1_214_26">
<rect width="1069" height="744" fill="white" transform="translate(294 664)"/>
</clipPath>
</defs>
</svg>
